<?xml version="1.0" standalone="no"?><!DOCTYPE svg PUBLIC "-//W3C//DTD SVG 1.1//EN" "http://www.w3.org/Graphics/SVG/1.1/DTD/svg11.dtd"><svg class="icon" width="200px" height="200.00px" viewBox="0 0 1024 1024" version="1.1" xmlns="http://www.w3.org/2000/svg"><path fill="#000000" d="M82.047566 71.154288C74.652059 73.698855 68.713263 79.395167 64.834193 87.153307L61.440007 94.061827 61.440007 930.443396 64.22914 935.897265C68.228379 943.535257 73.43985 948.624391 80.713063 951.898429L86.89428 954.687584 936.607985 954.687584 943.033767 951.776135C946.670395 950.081188 951.396939 946.562562 954.183948 943.533112 963.516888 932.867815 962.669414 974.565672 962.426972 509.828193L962.062236 92.849618 958.307606 86.183539C954.306242 78.910283 946.30566 72.608939 938.669813 70.426963 935.638217 69.577343 795.3931 69.214753 510.538912 69.334901 145.925638 69.334901 86.166954 69.699637 82.047566 71.154288ZM934.790743 89.215135C936.607985 90.184903 939.397139 92.487049 940.729497 94.184121L943.276209 97.456014 943.276209 925.834855 940.609348 929.231186C935.03104 936.382149 966.548484 935.897265 511.751036 935.897265 56.955905 935.897265 88.471203 936.382149 82.89504 929.231186L80.22818 925.837 80.22818 512.012315C80.22818 157.579454 80.470622 97.698456 81.925273 94.911468 83.500029 91.881996 86.409353 89.697874 91.138021 88.245368 92.107832 87.880632 281.566504 87.515897 512.115857 87.515897 880.001024 87.395706 931.638999 87.63819 934.790743 89.215135Z"  /><path fill="#000000" d="M149.442118 113.579471C134.410721 117.57869 121.926037 128.36628 114.895223 143.155235 111.380888 150.548639 111.138489 151.883142 111.138489 165.580079 111.138489 179.519393 111.258595 180.489139 115.017516 188.004837 119.986502 198.18525 124.715191 203.641265 132.713628 208.974986 150.289591 220.610051 172.956813 221.579819 191.260123 211.399405 207.018845 202.671498 218.413613 183.640883 218.413613 165.942626 218.533762 130.185689 184.351602 104.244386 149.442118 113.579471ZM179.260323 134.427327C191.260123 140.608522 198.290938 152.003291 198.290938 164.972858 198.290938 185.458124 181.807014 200.24489 160.836886 198.670134 142.89623 197.215483 129.926662 183.155999 129.926662 164.972858 129.926662 153.095352 134.653163 144.487592 145.925638 136.002127 153.321188 130.428066 169.927383 129.700741 179.260323 134.427327Z"  /><path fill="#000000" d="M272.353713 113.336986C252.353331 118.185846 236.109725 136.609304 232.715539 158.184486 229.321352 180.489139 241.323298 202.791646 262.656038 213.459088 270.899062 217.5806 271.504094 217.700749 285.685871 217.700749 300.112235 217.700749 300.474825 217.700749 309.445175 213.216647 337.688581 199.277311 347.87114 166.06492 332.595156 137.941619 322.172301 118.668605 295.383546 107.760866 272.353713 113.336986ZM296.838197 132.852506C304.111454 135.032316 313.201951 142.670308 316.838579 149.701208 320.475208 156.729877 321.202533 169.336812 318.415524 176.730217 315.748664 183.638759 308.110672 192.126349 301.444593 195.640726 294.413778 199.39746 278.050024 199.39746 271.021355 195.640726 258.776968 189.096941 252.110889 178.912194 252.110889 166.547658 251.988595 156.124803 254.170572 150.186049 260.353913 143.275426 270.65662 131.760467 282.29383 128.488531 296.838197 132.852506Z"  /><path fill="#000000" d="M104.714809 257.943955L105.077399 267.399188 916.002571 267.399188 916.367306 257.943955 916.729896 248.611015 104.350074 248.611015 104.714809 257.943955Z"  /><path fill="#000000" d="M500.478647 283.15791C493.205391 285.947064 485.449396 292.126114 480.843 298.794338 476.479047 305.217975 469.085642 323.763706 457.811022 356.49336 454.296602 366.796067 441.204826 404.735003 428.717997 440.736549 416.235458 476.738095 400.96162 521.100732 394.658131 539.403956 388.354642 557.709305 383.023067 572.981084 382.658331 573.223526 382.415889 573.588261 381.810857 572.738642 381.325973 571.528578 375.022485 552.738217 348.59632 488.858043 345.324427 484.614237 335.626752 471.889257 314.171719 470.677048 302.779096 482.069713 300.839561 484.009163 283.748481 504.616765 264.595573 528.011291 245.564958 551.283544 227.261669 573.103377 223.867483 576.497564 220.473297 580.011898 214.654692 584.13341 210.775622 586.072945 198.170832 592.011763 190.897533 592.739024 148.714792 593.103695 127.379907 593.223972 113.562908 593.468388 118.169261 593.708899 122.653363 593.951233 126.290012 594.558368 126.290012 595.163443 126.290012 595.648327 122.533215 597.34542 117.926819 598.92245 113.19813 600.497164 109.561501 602.314405 109.683817 602.921583 109.803943 603.648908 108.954324 604.496382 107.864408 604.738824 104.834957 605.346002 104.955106 600.859754 108.10685 597.710241 109.319059 596.49801 109.926194 595.043337 109.319059 594.678645 107.744239 593.708899 104.470265 599.042513 104.470265 602.556847 104.470265 604.376234 105.682474 606.920801 107.259376 608.375452 110.048531 611.042313 110.653541 611.042313 152.471568 611.042313 198.775821 611.042313 204.714575 610.437281 218.533762 604.011499 233.44501 597.225314 237.806818 592.496668 297.565523 518.798542 315.991106 496.011216 319.262998 492.979641 324.354278 493.949323 326.413961 494.434206 328.473644 495.161532 329.080821 495.768774 330.293031 496.980919 349.808529 543.527614 359.868794 569.224307 369.446321 593.708899 371.990888 598.679987 375.992252 600.739606 383.50795 604.618676 391.99127 601.829522 395.870341 594.315905 396.840108 592.496668 403.143597 574.920619 409.931969 555.284886 416.720256 535.64718 424.478482 513.222379 427.143197 505.586533 429.810058 497.948541 435.386221 481.584722 439.630027 469.220251 456.600958 419.523957 481.327884 348.73522 489.326321 326.552861 496.599577 306.430185 506.05481 298.309455 517.812104 301.823789 530.781736 305.702859 534.903248 314.068177 539.02476 344.976298 547.025342 403.887529 550.05475 427.402245 552.96416 451.039213 554.298598 462.069288 558.420046 494.19185 562.056824 522.555404 565.693474 550.91883 570.904794 591.284459 573.571655 612.254522 579.267966 656.619198 586.421074 706.922712 588.238273 715.410323 589.813115 722.438992 594.661953 728.015112 601.087735 729.712313 606.541605 731.287048 610.540823 730.439574 615.511954 726.680738 619.996013 723.40876 617.936373 729.105071 651.5135 626.801099 692.481887 502.554936 693.573948 499.403192 697.573166 495.646416 702.057268 491.282462 707.878019 490.192482 712.724711 492.737178 718.180726 495.52631 719.513126 498.79816 720.362703 511.040402 721.090028 522.677655 719.755568 518.798542 745.089629 585.588061 749.573666 597.225314 754.180126 607.77042 755.392336 608.98263 758.786522 612.496964 766.182072 612.012081 769.574113 608.012862 771.151058 606.315769 772.363267 603.769057 772.363267 602.556847 772.363267 601.22449 769.574113 593.223972 766.182072 584.738442 762.787886 576.134974 755.634778 557.587097 750.42335 543.40532 742.545062 522.192686 740.725675 515.889154 740.120643 508.253393 739.150875 494.556564 736.604163 487.888319 730.058232 481.342281 720.725336 472.009405 708.240609 469.342545 696.118515 473.94894 688.725067 476.738095 682.543915 481.342281 678.664845 487.160886 675.997985 491.162228 655.997602 550.193693 619.026332 663.165236 612.602652 682.800818 607.148782 699.651558 606.784047 700.621454 606.541605 701.588991 606.056721 702.073874 605.814279 701.831432 604.844512 700.741517 596.116604 634.921765 563.753832 383.764853 554.420892 311.401316 553.206623 306.310037 542.176505 294.430385 534.298216 285.824771 526.297634 282.188143 514.782718 281.703259 508.479229 281.460817 503.510243 281.945701 500.478647 283.15791Z"  /><path fill="#000000" d="M842.909563 580.132046C826.788251 583.648526 815.030892 592.496668 808.122371 606.193475 804.243301 613.951616 793.333417 638.923129 778.30202 674.680088 774.06036 684.620205 769.696407 693.710767 768.484197 694.922976 765.817337 697.589858 760.121025 697.712109 755.272188 695.165439 751.15059 693.105713 751.878001 694.560257 730.300674 644.98203 722.54468 627.285876 715.149044 611.769639 713.816772 610.437281 712.362121 609.102778 711.877237 608.860336 712.724711 609.952397 715.271423 613.346584 714.179276 625.708974 711.029763 629.225518 710.180144 630.195286 708.847786 632.619705 708.120461 634.559175 706.665809 638.678542 706.543516 638.438245 721.210112 672.862846 735.514247 706.560122 737.21134 709.104689 748.483815 714.07582 761.090793 719.651983 776.847369 716.500239 784.605509 706.802564 786.424896 704.498293 796.485161 682.438228 807.03031 657.711302 828.242902 608.012862 829.697553 605.708592 841.21247 601.22449 847.515958 598.800071 850.787851 598.557629 879.516141 598.195039 915.275245 597.710241 915.395393 597.587862 915.395393 588.617576 915.395393 584.980927 914.668068 582.921201 912.608384 580.981666 909.81923 578.437099 908.971756 578.314805 880.123318 578.437099 859.880494 578.437099 848.123136 579.042131 842.909563 580.132046Z"  /><path fill="#000000" d="M654.907687 736.620769C654.907687 737.955272 655.270191 738.317862 655.632931 737.350305 655.997602 736.500621 655.875395 735.40856 655.512654 735.04597 655.147983 734.561172 654.783248 735.288412 654.905627 736.620769Z"  /><path fill="#000000" d="M653.088214 741.347313C651.996282 744.501203 652.238745 745.226383 653.693289 742.801964 654.422803 741.589755 654.785393 740.257397 654.422803 740.014955 654.178216 739.65022 653.573184 740.257397 653.088214 741.347313Z"  /><path fill="#000000" d="M669.32976 746.560886C667.634813 749.590337 666.422603 752.621933 666.665045 753.226965 666.785193 753.834143 666.180247 757.228329 665.0881 760.864957L663.270923 767.288594 658.05735 766.80371C648.84443 766.074239 646.299927 764.984323 648.35961 762.319608 649.089082 761.469989 649.936555 758.318245 650.299103 755.288794 651.028617 750.075221 646.179779 764.379291 628.72405 818.441685 619.75576 846.320355 617.086668 851.169193 607.633666 856.260472 586.541137 867.775389 561.692003 855.653295 557.207837 831.651549 556.843273 829.349424 554.661188 813.228112 552.358978 795.89459 550.177001 778.561069 548.237551 766.681417 548.237551 769.470571 548.115301 772.259725 547.630331 774.92444 546.905194 775.289176 546.298016 775.653912 545.692985 775.409324 545.692985 774.804292 545.692985 774.074821 544.358481 773.469789 542.783682 773.469789 541.086589 773.469789 539.389496 772.864757 539.02476 772.137432 538.539876 771.40796 537.449961 771.167664 536.480193 771.530254 535.509825 771.896277 534.426088 771.409033 534.055774 770.440338 533.570891 769.470571 532.721271 768.620952 532.116239 768.620952 530.661588 768.620952 531.024178 772.984905 534.90548 808.016684 537.812551 835.047881 539.02476 841.229076 543.268566 850.441867 555.510808 877.473064 588.480801 887.653477 617.209047 873.351552 626.664281 868.622862 633.208066 861.956784 637.329578 852.986434 640.23888 846.562797 641.208648 843.653495 656.602634 794.077349 661.693914 777.713595 667.392371 759.288012 669.452054 752.984523 671.391589 746.803328 672.84624 741.469607 672.723946 741.227165 672.481505 740.984723 670.906705 743.409142 669.32976 746.560886Z"  /><path fill="#000000" d="M530.054411 763.28723C530.054411 764.621733 530.419146 764.984323 530.783882 764.016701 531.146472 763.167082 531.024178 762.075021 530.661588 761.712431 530.296853 761.227547 529.932117 761.954873 530.054411 763.28723Z"  /></svg>